<?xml version="1.0" encoding="UTF-8" standalone="no"?>
<!-- Created with Inkscape (http://www.inkscape.org/) -->

<svg
   version="1.1"
   id="svg2"
   width="364"
   height="264"
   viewBox="0 0 364 264"
   sodipodi:docname="Логотип Мастеркар.eps"
   xmlns:inkscape="http://www.inkscape.org/namespaces/inkscape"
   xmlns:sodipodi="http://sodipodi.sourceforge.net/DTD/sodipodi-0.dtd"
   xmlns="http://www.w3.org/2000/svg"
   xmlns:svg="http://www.w3.org/2000/svg">

   <!-- Добавленный прямоугольник для подложки -->
  <rect x="0" y="0" width="100%" height="100%" fill="#FFFFFF" />
  <defs
     id="defs6" />
  <sodipodi:namedview
     id="namedview4"
     pagecolor="#ffffff"
     bordercolor="#000000"
     borderopacity="0.25"
     inkscape:showpageshadow="2"
     inkscape:pageopacity="0.0"
     inkscape:pagecheckerboard="0"
     inkscape:deskcolor="#d1d1d1" />
  <g
     id="g8"
     inkscape:groupmode="layer"
     inkscape:label="ink_ext_XXXXXX"
     transform="matrix(1.3333333,0,0,-1.3333333,0,264)">
    <g
       id="g10"
       transform="scale(0.1)">
      <path
         d="m 1402.32,1436.18 120.14,0.05 40.02,-2.39 c 20.08,-84.15 34.52,-233.85 33.39,-324.14 l -204.11,-0.1 -1.01,311.87 c 2.67,16.61 -6.19,14.65 11.57,14.71 z M 1077.6,1109.72 c -0.43,92.58 14.03,214.99 30.25,308.91 3.89,22.53 5.25,17.71 27.6,17.71 l 146.21,-0.54 v -325.48 z m 315.03,717.86 c 32.66,-22.62 64.31,-78.02 86.23,-122.92 17.48,-35.8 50.54,-115.8 56.03,-158.5 l -143.52,0.05 z M 1138.1,1546.7 c 12.17,66.53 92.75,263.17 143.65,279.22 l -0.04,-279.07 z m -434.666,-0.17 c 9.152,20.33 93.742,107.72 115.976,118.79 -7.515,-18.61 -25.375,-40.87 -37.437,-61.07 -38.758,-64.87 -13.461,-58.34 -78.539,-57.72 z m 1218.056,-0.08 c -10.9,36.05 -62.09,103.2 -68.81,120.82 22.89,-11.72 85.18,-77.96 105.81,-103.67 5.66,-7.06 7.39,-8.47 11.74,-17.4 z m -270.25,178.94 c 10.15,-4.8 6.49,-3.04 14.84,-10.7 37.38,-34.27 123.44,-133.59 131.3,-168.58 l -147.6,0.09 -15.47,58.32 c -3.11,2.98 -27.04,79.99 -33.22,95.32 -12.95,32.17 -29.59,62.68 -41.36,91.39 13.52,-4.17 85.83,-51.74 91.51,-65.84 z m -774.47,-179 c 4.203,40.99 169.17,226.47 237.68,244.52 -19.02,-34.32 -36.83,-76.47 -51.58,-116.95 -15.15,-41.57 -24.66,-87.44 -39.45,-127.85 z m -587.758,377.54 c -18.457,-18.53 -34.77,-42.97 -42.328,-77.8 -24.84,-114.37 56.296,-260.77 111.574,-351.51 35.09,-57.6 69.121,-97.15 95.972,-139.09 44.793,-57.06 107.008,-137.03 155.719,-186.42 7.559,-7.67 47.492,-50.13 52,-59.4 l -132.09,-0.12 c 0.153,22.5 4.02,47.11 7.907,68.41 5.382,29.51 -14.723,42.54 -50.676,85.09 -9.375,11.09 -22.899,29.92 -32.227,37.48 -21.562,-30.07 -28.972,-160.32 -36.695,-189.12 -27.434,-5.54 -357.8672,-2.24 -414.03519,-1.72 l 0.0625,-86.17 c 451.57069,0.67 903.19969,0.01 1354.77469,0.01 26.51,0 1324.31,-4.66 1352.8,1.84 l -0.63,84.19 -455.95,0.28 c -3.77,42.37 -10.23,88.83 -19.19,130.53 -3.01,13.99 -6.36,28.48 -10.98,42.45 l -61.4,-72.62 c -9.4,-11.25 -26.22,-24.1 -26.33,-39.06 -0.13,-17.53 6.5,-40.28 6.54,-61.57 l -118.18,0.33 c 5.69,13.3 47.34,52.61 60.18,68.01 19.47,23.37 38.22,43.93 59,67.82 18.68,21.47 38.21,46.05 56.88,69.86 l 55.95,69.32 c 1.66,7.99 62.44,95.28 74.21,114.12 8.43,13.48 27.19,51.11 35.97,61.14 5.29,6.02 44.14,17.7 60.83,32.13 30.8,26.6 59.37,79.05 37.12,138.07 -19.26,51.08 -20.58,5.8 -20.97,74.3 -0.94,165.22 -159.78,186.11 -296.96,161.99 -103.63,-18.23 -195.7,-57.21 -282.1,-94.68 l 22.82,-18.01 c 98.51,-65.79 34.01,-59.31 161.64,-16.25 57.48,19.39 158.08,45.82 218.06,32.24 29.39,-6.65 62.69,-27.77 59.57,-59.79 -49.71,-9.11 -84.81,-42.18 -97.86,-85.58 -18.5,-61.53 7.18,-95.27 35.31,-130.1 -6.17,-28.47 -95.61,-153.68 -122.78,-189.65 -84.85,-112.31 -151.17,-179.49 -244.26,-279.55 -13.32,-14.32 -11.74,-16.1 -38.75,-15.87 -41.84,0.34 -118.88,-1.84 -151.87,1.02 l -18.04,220.48 -15.12,105.3 177.24,-0.08 c 15.8,-25.89 69.47,-197.03 60.47,-230.7 0.57,-0.83 1.2,-1.98 1.54,-2.6 l 5.72,-10.95 c 33.41,29.52 57.93,65.76 90.41,95.17 0.78,39 -36.35,129.1 -38.31,149.08 l 73.47,-0.11 c 16.19,-21.99 24.42,-52.36 34.57,-62.49 10.4,8.69 66.74,80.41 73.01,94.17 2.3,42.45 -151.46,209.73 -189.85,250.18 -189.16,185.52 -480.46,275.64 -752.63,238.22 -100.74,-13.85 -231.573,-53.92 -305.706,-99.69 -57.476,-21.8 -160.742,-107.62 -205.703,-148.84 -47.82,-43.84 -102.516,-112.82 -139.559,-170.82 -3.644,-5.7 -5.937,-9.67 -9,-14.52 l -7.472,-9.72 c -12.621,-36.1 -24.102,-15.83 12.07,-65.01 8.113,-11.04 36.684,-51.14 48.383,-58.56 l 25.215,47.22 72.351,-0.03 c 2.031,-27.66 -45.551,-112.29 -27.562,-136.98 7.328,-10.06 73.086,-83.91 86.293,-90.07 6.523,70.43 35.804,166.71 61.113,227.19 l 176.512,-7.24 -20.903,-169.58 -8.558,-148.52 c -31.028,-5.12 -94.364,-1.11 -129.078,-1.38 -42.59,-0.32 -32.973,-4.51 -82.043,49.23 -41.625,45.58 -83.582,87.19 -123.676,136.62 -91.852,113.25 -262.012,319.53 -276.609,473.41 -16.227,171.03 220.148,90.96 311.253,58.31 49.024,-17.56 40.227,-27.13 76.918,1.65 18.219,14.3 58.766,37.97 65.172,48.89 l -75.875,31.04 c -112.597,44.42 -343.957,116.21 -444.644,15.18"
         style="fill:#000000;fill-opacity:1;fill-rule:evenodd;stroke:none"
         id="path12" />
      <path
         d="M 3.83594,322.477 2711.58,322.691 2711.47,407.887 3.92578,408.332 3.83594,322.477"
         style="fill:#000000;fill-opacity:1;fill-rule:evenodd;stroke:none"
         id="path14" />
      <path
         d="m 118.617,857.215 -17.387,32.332 -84.73,1.691 -0.5742,-344.621 88.7422,1.375 -5.2774,164.149 C 114.176,674.766 129.031,634.313 145.215,597.285 l 59.437,0.903 45.598,112.996 -3.453,-164.903 87.336,1.285 -0.949,341.918 -85.164,-0.316 c -9.661,-13.324 -27.832,-61.039 -35.793,-79.707 L 185.41,746.492 c -0.687,-1.629 -3.152,-7.289 -4.23,-9.097 -4.571,-7.684 -2.821,-4.75 -6.555,-8.426 -11.184,13.101 -49.918,107.707 -56.008,128.246"
         style="fill:#000000;fill-opacity:1;fill-rule:evenodd;stroke:none"
         id="path16" />
      <path
         d="m 1623.04,730.965 -0.04,75.781 c 116.24,16.609 131.07,-86.637 0.04,-75.781 z m 6.14,-76.524 3.37,0.207 c 6.34,-3.062 7.36,-2.222 15.24,-12.714 l 67.76,-94.836 107.75,-0.727 c -12.03,29.465 -78.94,92.609 -88.46,119.035 82.02,29.278 74.33,141.93 40.39,184.262 -42.36,52.828 -158.93,42.031 -240.82,39.496 l 0.15,-342.539 87.96,-0.094 0.25,80.602 c -0.51,29.133 0.37,22.246 6.41,27.308"
         style="fill:#000000;fill-opacity:1;fill-rule:evenodd;stroke:none"
         id="path18" />
      <path
         d="m 2524.18,806.508 c 38.14,6.601 92.03,6.633 90.32,-39.344 -1.54,-41.531 -50.67,-40.715 -90.38,-35.867 z m 99.2,-260.098 101.12,-0.008 c -9.73,23.453 -77.67,94.184 -87.96,117.336 20.25,12.84 27.07,13.114 40.52,29.871 33.31,41.496 29.21,120.989 -2.12,158.461 -51.98,62.196 -168.53,38.578 -237.97,39.782 l -0.68,-345.411 87.57,0.395 1.57,108.016 c 15.25,1.054 12.74,0.972 20.14,-8.758 10.42,-13.684 60.67,-93.239 77.81,-99.684"
         style="fill:#000000;fill-opacity:1;fill-rule:evenodd;stroke:none"
         id="path20" />
      <path
         d="m 1488.62,549.934 0.8,79.156 -150.44,-0.008 0.13,50.227 137.97,0.109 0.35,75.695 -137.19,0.145 -1.67,52.14 150.41,0.161 1.59,79.57 -238.68,1.476 0.4,-339.507 236.33,0.836"
         style="fill:#000000;fill-opacity:1;fill-rule:evenodd;stroke:none"
         id="path22" />
      <path
         d="m 2254.23,789.512 21.46,-96.965 -48.62,0.105 z m -96.6,-52.399 -63.88,-190.57 92.89,0.301 c 3.58,13 6.57,22.422 10.64,35.722 2.09,6.836 2.88,10.914 5.27,17.747 7.92,22.628 7.99,14.933 95.32,14.675 l 22.06,-68.457 93.4,0.426 -11.28,36.691 c -4.95,4.457 -49.1,133.418 -56.01,153.157 -8.84,25.316 -45.23,137.383 -56.27,152.828 l -77.59,-0.274 -54.55,-152.246"
         style="fill:#000000;fill-opacity:1;fill-rule:evenodd;stroke:none"
         id="path24" />
      <path
         d="m 493.109,692.391 c 2.438,18.425 17.059,85.918 26.004,97.132 l 22.465,-96.73 z m -134.351,-146.934 92.773,1.387 c 5.543,21.242 11.684,52.355 23.348,68.265 l 88.012,-0.386 22.082,-68.055 92.656,-1.234 -66.18,193.898 -54.566,149.512 -78.664,0.769 -119.461,-344.156"
         style="fill:#000000;fill-opacity:1;fill-rule:evenodd;stroke:none"
         id="path26" />
      <path
         d="m 734.785,700.148 c 28.981,-17.293 54.856,-14.265 84.465,-25.648 71.199,-27.367 -13.992,-88.754 -84.145,-20.902 -12.289,-5.637 -47.992,-38.93 -54.488,-49.91 54.703,-95.571 243.879,-75.34 250.801,40.082 8.523,142.14 -162.133,94.316 -162.527,150.128 -0.157,21.977 22.863,31.196 45.785,28.528 28.562,-3.321 36.578,-19.344 53.879,-25.278 17.765,13.469 33.093,26.356 52.453,40.067 -6.965,33.14 -75.621,54.594 -99.004,56.519 -49.906,4.11 -106.184,-12.804 -129.629,-57.336 -26.945,-51.175 -4.867,-108.039 42.41,-136.25"
         style="fill:#000000;fill-opacity:1;fill-rule:evenodd;stroke:none"
         id="path28" />
      <path
         d="m 2024.99,654.465 c -19.83,-8.051 -27.86,-44.512 -75.36,-27.645 -36.1,12.817 -26.52,47.688 -26.52,86.961 0,39.09 -8.59,78.383 19.94,93.321 36.04,18.871 61.12,-1.969 79.82,-19.7 l 69.08,26.805 c -9.5,53.164 -83.28,83.098 -132.56,79.676 -145.79,-10.125 -123.61,-137.715 -123.83,-220.145 -0.2,-75.871 36.28,-116.187 101.53,-128.773 73.49,-14.172 135.77,23.691 155.89,72.062 -7.57,9.09 -37.16,19.973 -50.65,26.024 l -17.34,11.414"
         style="fill:#000000;fill-opacity:1;fill-rule:evenodd;stroke:none"
         id="path30" />
      <path
         d="m 947.57,807.109 90.5,-0.16 0.57,-259.922 87.66,-0.687 0.56,259.578 90.62,1.496 0.09,81.418 -268.836,1.027 -1.164,-82.75"
         style="fill:#000000;fill-opacity:1;fill-rule:evenodd;stroke:none"
         id="path32" />
      <path
         d="m 1872.77,8.59375 c -0.88,61.69535 1.69,121.00825 -0.03,179.69525 l -41.85,-0.012 c -6.45,-24.672 2.91,-92.6168 -0.79,-104.5661 -15.07,37.4061 -33.17,67.5191 -54.08,104.1051 l -44.95,0.473 0.09,-180.40228 46.72,0.54687 -3.85,100.14841 c 7.37,-18.7695 43.85,-88.5703 55.35,-100.74216 l 43.39,0.75391"
         style="fill:#000000;fill-opacity:1;fill-rule:evenodd;stroke:none"
         id="path34" />
      <path
         d="m 711.176,144.605 c 34.668,2.438 44.656,3.758 44.683,-31.339 0.52,-36.4457 2.45,-20.4301 -3.632,-57.1879 -12.008,-3.9843 -25.93,-5.2109 -40.879,-3.9258 l -0.235,77.7927 z M 664.77,7.86719 c 31.562,-0.10156 79.878,-4.67969 105.011,7.55471 31.461,15.3164 32.84,38.0117 32.809,81.1601 -0.027,36.852 -0.621,68.191 -30.981,83.445 -23.757,11.942 -77.308,9.086 -107.136,7.965 L 664.77,7.86719"
         style="fill:#000000;fill-opacity:1;fill-rule:evenodd;stroke:none"
         id="path36" />
      <path
         d="m 898.758,74.4805 c 3.273,3.4023 -1.695,4.3828 16.285,4.6836 5.238,0.0898 11.449,-0.2891 16.895,-0.3008 12.468,-0.0117 24.984,0.0195 37.562,0.1289 l -1.086,36.1488 -56.75,-0.09 c -18.121,1.469 -9.703,-0.844 -13.875,5.722 l 2.219,24.282 77.109,0.125 0.028,43.23 -125.805,-0.39 1.703,-180.23094 124.152,1.08985 -0.777,42.58989 -78.043,1.2734 0.383,21.7383"
         style="fill:#000000;fill-opacity:1;fill-rule:evenodd;stroke:none"
         id="path38" />
      <path
         d="m 2051.15,28.1289 c 19.61,21.0547 16.3,55.5625 14.23,83.9881 l -72.08,0.758 -0.3,-38.4922 c 3.9,-0.1094 11.06,0.1485 13.37,-0.1367 5.08,-0.6367 6.19,0.2344 15.36,-1.6367 -2.55,-18.1524 -16.18,-29.8399 -36.57,-23.7383 -19.45,5.8242 -15.57,22.3906 -15.4,44.3477 0.14,19.0662 -3.74,43.1792 8.01,51.7462 19.75,14.379 34.74,-4.477 45.1,-9.063 l 34.12,16.043 c -19.91,56.047 -131.03,55.328 -133.43,-25.211 -1.08,-35.9762 -4.7,-79.7965 15.6,-100.5192 28.56,-29.14839 85.01,-26.456988 111.99,1.9141"
         style="fill:#000000;fill-opacity:1;fill-rule:evenodd;stroke:none"
         id="path40" />
      <path
         d="m 1248.88,130.258 c 3.45,-15.973 7.62,-32.7892 11.6,-45.2346 l -24.51,0.2657 z m -82.05,-122.41816 47.45,0.42579 10.86,35.65237 47.55,-1.3203 12.88,-34.64848 45.89,-0.11328 C 1331.53,19.0859 1274.93,178.039 1268,188.277 l -40.21,1.121 C 1215.01,158.828 1177.22,41.543 1166.83,7.83984"
         style="fill:#000000;fill-opacity:1;fill-rule:evenodd;stroke:none"
         id="path42" />
      <path
         d="m 1587.34,52.9609 -71.23,1.3946 1.58,133.4065 -48.25,-0.184 1.29,-179.72644 118.27,0.2461 -1.66,44.86324"
         style="fill:#000000;fill-opacity:1;fill-rule:evenodd;stroke:none"
         id="path44" />
      <path
         d="m 1060.68,143.938 c 5.07,-0.086 4.48,2.41 4.03,-10.657 L 1064.57,9.91016 1106.96,9.875 c 0.19,28.7695 0.67,113.664 0.99,135.527 l 47.52,-0.179 0.28,42.082 -140.74,-1.578 0.69,-41.125 44.98,-0.664"
         style="fill:#000000;fill-opacity:1;fill-rule:evenodd;stroke:none"
         id="path46" />
      <path
         d="m 1633.54,188.395 c -2.15,-25.227 0.16,-124.6723 -0.11,-180.72312 l 44.5,1.17578 -1.09,179.24634 -43.3,0.301"
         style="fill:#000000;fill-opacity:1;fill-rule:evenodd;stroke:none"
         id="path48" />
      <path
         d="m 1416.54,187.434 -45,-0.356 -0.35,-178.15222 43.67,0.41797 1.68,178.09025"
         style="fill:#000000;fill-opacity:1;fill-rule:evenodd;stroke:none"
         id="path50" />
    </g>
  </g>
</svg>
